<?xml version="1.0" standalone="no"?>
<!DOCTYPE svg PUBLIC "-//W3C//DTD SVG 20010904//EN"
 "http://www.w3.org/TR/2001/REC-SVG-20010904/DTD/svg10.dtd">
<svg version="1.0" xmlns="http://www.w3.org/2000/svg"
 width="512.000000pt" height="512.000000pt" viewBox="0 0 512.000000 512.000000"
 preserveAspectRatio="xMidYMid meet">
<metadata>
Created by potrace 1.11, written by Peter Selinger 2001-2013
</metadata>
<g transform="translate(0.000000,512.000000) scale(0.100000,-0.100000)"
fill="#000000" stroke="none">
<path d="M440 5044 c-165 -44 -292 -159 -353 -321 l-22 -58 0 -2115 0 -2115
37 -77 c20 -42 33 -80 30 -84 -4 -4 -1 -4 5 0 7 4 13 3 13 -2 0 -14 108 -120
116 -113 4 3 4 -2 1 -12 -4 -10 -3 -16 2 -12 14 8 42 -6 34 -18 -4 -6 -1 -7 6
-3 7 5 19 0 27 -10 9 -11 13 -14 10 -7 -5 8 1 9 23 0 17 -6 28 -14 25 -18 -2
-4 6 -5 18 -1 13 3 19 1 15 -5 -4 -6 4 -8 20 -5 20 4 24 2 18 -9 -7 -11 -6
-12 7 -2 8 7 18 10 22 6 3 -4 34 -7 69 -7 34 -1 68 -5 76 -10 9 -6 12 -5 7 2
-8 13 211 11 233 -2 9 -6 12 -5 7 2 -8 13 211 11 233 -2 9 -6 12 -5 7 2 -8 13
211 11 233 -2 9 -6 12 -5 7 2 -8 13 211 11 233 -2 9 -6 12 -5 7 2 -8 13 211
11 233 -2 9 -6 12 -5 7 2 -8 13 211 11 233 -2 9 -6 12 -5 7 2 -8 13 211 11
233 -2 9 -6 12 -5 7 2 -8 13 211 11 233 -2 9 -6 12 -5 7 2 -8 13 211 11 233
-2 9 -6 12 -5 7 2 -8 13 211 11 233 -2 9 -6 12 -5 7 2 -8 13 211 11 233 -2 9
-6 12 -5 7 2 -8 13 211 11 233 -2 9 -6 12 -5 7 2 -8 13 211 11 233 -2 9 -6 12
-5 7 2 -8 13 211 11 233 -2 9 -6 12 -5 7 2 -8 13 211 11 233 -2 9 -6 12 -5 8
2 -10 14 253 13 272 -2 11 -8 13 -8 8 1 -5 8 6 11 40 9 27 -2 54 1 61 7 8 6
18 5 29 -4 9 -8 14 -9 10 -3 -8 14 38 28 55 18 6 -4 8 -3 5 2 -3 6 7 15 24 21
22 9 28 8 23 0 -3 -7 0 -5 8 3 17 20 101 78 110 76 3 0 10 3 15 8 5 5 2 6 -7
1 -8 -4 -2 5 15 21 16 16 33 28 37 26 5 -1 7 1 6 5 -3 13 32 73 42 73 6 0 10
7 10 15 0 9 8 30 17 48 9 18 17 39 18 47 1 8 5 39 9 68 10 67 10 4073 1 4142
-27 200 -177 363 -379 415 -88 22 -4151 22 -4236 -1z m2011 -526 c1 -7 1 -17
0 -21 -1 -5 3 -6 8 -2 6 3 8 11 5 18 -2 7 4 13 16 14 11 1 18 -2 15 -8 -4 -5
-1 -9 4 -9 6 0 11 4 11 9 0 5 11 9 25 9 15 0 22 -5 18 -12 -3 -6 0 -6 8 2 7 6
19 12 27 12 8 0 10 -5 6 -12 -6 -10 -5 -10 7 -1 16 13 36 12 57 0 6 -5 12 -4
12 1 0 5 7 9 15 9 8 0 15 -4 15 -8 0 -4 10 -5 22 -1 14 3 19 1 14 -6 -3 -6 -2
-14 4 -17 6 -4 9 -1 8 6 -2 8 7 14 20 15 12 1 22 -1 22 -5 0 -3 20 -7 44 -7
56 -2 98 -12 92 -23 -3 -4 1 -8 9 -8 8 0 12 4 9 9 -3 4 -2 8 2 8 8 0 82 -20
104 -28 8 -3 21 -4 28 -3 6 1 12 -6 12 -16 0 -14 2 -15 9 -4 6 9 14 10 22 5 8
-5 16 -9 19 -9 38 -6 72 -20 80 -33 5 -10 10 -12 10 -4 0 6 5 12 11 12 5 0 7
-4 4 -10 -3 -6 1 -7 9 -4 10 4 16 1 16 -7 0 -7 3 -10 6 -6 8 8 65 -13 59 -23
-2 -4 7 -7 21 -7 25 0 47 -20 39 -33 -2 -4 2 -7 10 -7 11 0 12 4 3 14 -8 11
-7 12 6 7 9 -3 16 -10 16 -15 0 -5 3 -8 8 -7 13 3 42 -14 37 -22 -3 -5 3 -6
13 -3 10 2 24 -3 31 -11 8 -9 20 -16 27 -16 7 0 21 -12 29 -27 9 -16 14 -20
11 -11 -3 12 -1 15 10 11 7 -3 14 -9 14 -14 0 -5 7 -9 15 -9 8 0 15 -4 15 -10
0 -5 7 -10 15 -10 8 0 15 -4 15 -10 0 -5 4 -10 10 -10 10 0 89 -58 116 -85 9
-8 20 -15 25 -15 5 0 9 -8 9 -17 0 -9 3 -14 6 -10 4 3 12 1 18 -6 7 -7 29 -27
50 -45 21 -18 34 -37 30 -44 -5 -7 -3 -8 5 -3 11 6 51 -24 51 -39 0 -2 16 -21
35 -41 21 -21 33 -41 29 -48 -4 -7 -3 -9 1 -4 10 9 47 -22 39 -34 -3 -5 1 -9
8 -9 7 0 26 -21 43 -48 16 -26 32 -49 36 -52 11 -9 60 -90 54 -90 -3 0 3 -10
15 -22 11 -12 20 -28 20 -35 0 -7 4 -13 9 -13 7 0 54 -99 51 -109 -1 -2 2 -7
7 -10 5 -3 20 -33 33 -66 13 -33 27 -65 31 -71 5 -6 10 -19 12 -30 2 -10 7
-27 12 -36 4 -10 8 -29 9 -42 0 -13 3 -22 5 -20 5 5 31 -86 36 -121 1 -11 5
-27 8 -35 3 -8 9 -33 12 -54 3 -22 8 -42 10 -44 3 -3 -1 -12 -8 -20 -7 -10 -8
-13 -1 -9 15 9 24 -59 9 -74 -7 -9 -6 -10 3 -5 7 5 12 1 12 -11 1 -10 3 -71 6
-136 4 -82 3 -122 -5 -131 -9 -10 -9 -16 -1 -21 7 -4 8 -22 4 -48 -3 -23 -7
-58 -9 -77 -7 -85 -28 -199 -35 -195 -5 3 -6 -3 -3 -13 9 -37 -65 -263 -139
-422 -66 -141 -198 -350 -267 -422 -9 -9 -41 -44 -71 -78 -64 -73 -218 -207
-310 -272 -257 -181 -555 -297 -875 -342 -110 -16 -379 -18 -490 -5 -582 70
-1101 392 -1421 880 -58 87 -130 220 -162 295 -36 88 -60 154 -55 154 3 0 1 6
-5 13 -10 11 -60 195 -67 242 -1 11 -5 38 -9 60 -3 22 -10 63 -14 91 -5 28 -5
61 0 73 4 13 4 20 -1 16 -5 -3 -10 53 -10 130 -1 103 1 135 11 135 8 0 9 3 3
8 -6 4 -10 13 -9 20 1 6 2 21 3 33 1 13 5 18 13 13 10 -6 10 -5 1 7 -11 14
-11 30 2 99 3 14 7 41 10 60 5 29 21 100 40 170 2 8 4 21 4 28 1 7 5 11 10 8
5 -4 7 4 3 16 -3 13 -1 19 5 15 7 -4 9 0 7 11 -7 26 24 94 39 85 9 -5 9 -4 0
8 -10 12 2 43 62 163 41 82 81 156 89 165 9 10 16 21 16 25 0 16 44 65 53 59
6 -3 7 -1 3 6 -9 14 28 63 39 53 5 -4 5 -1 1 5 -4 8 3 23 18 38 14 14 23 25
21 25 -6 0 59 72 130 144 79 80 154 142 167 139 4 -2 7 3 5 10 -1 7 7 12 20
11 12 0 20 3 17 7 -8 13 36 51 52 45 9 -3 12 -1 9 4 -6 10 121 97 136 93 5 -2
9 1 9 6 0 8 120 70 220 115 78 34 152 57 166 52 8 -3 13 -2 10 3 -5 8 45 26
103 36 13 2 38 9 55 15 17 5 49 11 71 13 22 2 47 7 55 10 27 10 100 15 100 6
0 -5 5 -9 11 -9 5 0 8 4 4 9 -3 5 8 9 25 9 17 -1 33 2 37 5 10 11 23 8 24 -5z"/>
<path d="M2610 4506 c0 -2 7 -7 16 -10 8 -3 12 -2 9 4 -6 10 -25 14 -25 6z"/>
<path d="M3150 4400 c0 -5 5 -10 11 -10 5 0 7 5 4 10 -3 6 -8 10 -11 10 -2 0
-4 -4 -4 -10z"/>
<path d="M1835 4380 c-3 -6 1 -7 9 -4 18 7 21 14 7 14 -6 0 -13 -4 -16 -10z"/>
<path d="M1535 4220 c3 -5 8 -10 11 -10 2 0 4 5 4 10 0 6 -5 10 -11 10 -5 0
-7 -4 -4 -10z"/>
<path d="M2419 4206 c-2 -2 -32 -7 -67 -10 -146 -14 -383 -86 -537 -164 -205
-102 -427 -287 -568 -472 -185 -243 -305 -552 -333 -860 -8 -93 -2 -360 9
-360 4 0 7 -13 7 -29 0 -17 7 -60 16 -97 8 -37 13 -73 10 -81 -3 -8 -2 -12 3
-9 11 7 23 -52 14 -67 -3 -6 -1 -7 5 -3 7 4 13 2 13 -3 2 -17 2 -17 32 -96 7
-16 12 -32 12 -35 2 -14 83 -171 107 -206 15 -23 28 -47 28 -53 0 -6 5 -11 11
-11 6 0 8 -9 4 -22 -4 -15 -3 -18 2 -11 7 9 19 0 44 -35 19 -26 36 -51 38 -55
2 -5 21 -27 42 -50 30 -30 36 -43 27 -50 -9 -6 -8 -7 3 -4 17 6 76 -50 71 -66
-1 -4 1 -6 5 -5 5 2 19 -5 33 -15 13 -9 20 -17 15 -18 -6 0 0 -4 13 -10 13 -5
20 -13 17 -19 -4 -6 -1 -9 7 -8 7 2 12 -3 10 -10 -1 -6 2 -11 7 -10 16 5 91
-47 86 -59 -2 -7 2 -10 11 -6 7 3 14 -1 14 -8 0 -7 3 -10 6 -6 9 8 33 -16 26
-27 -3 -5 0 -6 7 -2 6 4 35 -6 64 -22 28 -17 78 -44 109 -60 32 -16 56 -31 53
-33 -2 -2 6 -5 18 -5 33 -3 117 -35 112 -44 -2 -4 7 -5 20 -2 14 2 25 0 25 -5
0 -8 15 -12 58 -15 7 -1 10 -8 7 -17 -5 -13 -4 -14 6 -4 18 18 29 16 29 -4 0
-15 2 -15 9 -4 6 9 15 11 27 6 11 -4 30 -9 44 -10 14 -1 25 -3 25 -4 0 -2 18
-3 40 -4 46 -3 68 -14 59 -29 -4 -7 -2 -8 5 -4 6 4 9 10 7 14 -4 6 180 6 291
-1 22 -1 39 1 36 6 -2 4 3 7 12 7 9 0 14 -4 10 -9 -3 -5 0 -13 6 -17 7 -4 9
-3 5 4 -9 14 5 21 56 28 24 3 61 10 83 15 53 11 57 11 50 -3 -4 -7 1 -4 9 6 9
11 19 17 22 13 4 -4 12 -3 18 2 7 6 23 12 36 14 14 3 37 10 51 15 15 6 30 8
33 5 3 -4 6 -1 6 6 0 8 8 11 20 8 11 -3 18 -2 15 3 -6 10 43 23 57 14 7 -5 8
-2 3 6 -6 10 -4 12 11 6 10 -4 15 -4 11 0 -3 4 26 23 66 44 39 20 91 49 115
64 37 23 46 25 60 14 15 -12 16 -11 4 4 -11 14 -10 18 10 29 13 6 45 29 72 50
26 21 53 36 59 32 6 -3 7 -1 3 6 -4 6 1 14 14 19 12 4 22 12 23 17 1 6 10 10
19 9 9 0 14 4 11 9 -7 12 78 98 90 90 6 -3 7 -1 4 5 -9 13 66 95 77 85 4 -4 5
-1 2 7 -4 9 9 31 28 53 19 20 33 37 30 37 -2 0 3 11 12 25 9 14 21 22 27 18 6
-3 7 -1 3 6 -4 6 6 31 22 54 16 24 37 62 47 85 10 23 22 39 27 36 4 -3 5 1 2
9 -3 8 1 21 9 28 7 8 12 20 9 27 -2 6 0 12 6 12 5 0 9 6 10 13 2 21 49 147 53
143 2 -3 5 10 6 27 2 18 7 33 13 35 6 2 8 8 5 13 -3 5 -1 26 4 46 11 42 17 74
30 178 10 71 7 361 -3 425 -12 69 -28 146 -42 196 -8 28 -16 60 -19 70 -6 31
-71 186 -109 263 -36 71 -139 227 -192 291 -50 60 -203 208 -262 253 -210 161
-499 288 -737 324 -16 2 -41 7 -55 10 -29 6 -356 14 -361 9z"/>
<path d="M3375 1100 c3 -5 8 -10 11 -10 2 0 4 5 4 10 0 6 -5 10 -11 10 -5 0
-7 -4 -4 -10z"/>
<path d="M2775 911 c-3 -5 -2 -12 3 -15 5 -3 9 1 9 9 0 17 -3 19 -12 6z"/>
<path d="M2510 896 c0 -2 8 -10 18 -17 15 -13 16 -12 3 4 -13 16 -21 21 -21
13z"/>
<path d="M670 41 c0 -6 4 -13 10 -16 6 -3 7 1 4 9 -7 18 -14 21 -14 7z"/>
<path d="M910 41 c0 -6 4 -13 10 -16 6 -3 7 1 4 9 -7 18 -14 21 -14 7z"/>
<path d="M1150 41 c0 -6 4 -13 10 -16 6 -3 7 1 4 9 -7 18 -14 21 -14 7z"/>
<path d="M1390 41 c0 -6 4 -13 10 -16 6 -3 7 1 4 9 -7 18 -14 21 -14 7z"/>
<path d="M1630 41 c0 -6 4 -13 10 -16 6 -3 7 1 4 9 -7 18 -14 21 -14 7z"/>
<path d="M1870 41 c0 -6 4 -13 10 -16 6 -3 7 1 4 9 -7 18 -14 21 -14 7z"/>
<path d="M2110 41 c0 -6 4 -13 10 -16 6 -3 7 1 4 9 -7 18 -14 21 -14 7z"/>
<path d="M2350 41 c0 -6 4 -13 10 -16 6 -3 7 1 4 9 -7 18 -14 21 -14 7z"/>
<path d="M2590 41 c0 -6 4 -13 10 -16 6 -3 7 1 4 9 -7 18 -14 21 -14 7z"/>
<path d="M2830 41 c0 -6 4 -13 10 -16 6 -3 7 1 4 9 -7 18 -14 21 -14 7z"/>
<path d="M3070 41 c0 -6 4 -13 10 -16 6 -3 7 1 4 9 -7 18 -14 21 -14 7z"/>
<path d="M3310 41 c0 -6 4 -13 10 -16 6 -3 7 1 4 9 -7 18 -14 21 -14 7z"/>
<path d="M3550 41 c0 -6 4 -13 10 -16 6 -3 7 1 4 9 -7 18 -14 21 -14 7z"/>
<path d="M3790 41 c0 -6 4 -13 10 -16 6 -3 7 1 4 9 -7 18 -14 21 -14 7z"/>
<path d="M4030 41 c0 -6 4 -13 10 -16 6 -3 7 1 4 9 -7 18 -14 21 -14 7z"/>
<path d="M4270 41 c0 -6 4 -13 10 -16 6 -3 7 1 4 9 -7 18 -14 21 -14 7z"/>
</g>
</svg>
